<svg width="14" height="14" viewBox="0 0 14 14" fill="none" xmlns="http://www.w3.org/2000/svg">
<g clip-path="url(#clip0_1_158)">
<path d="M12.9584 10.7917C12.9584 11.079 12.8442 11.3545 12.6411 11.5577C12.4379 11.7609 12.1623 11.875 11.875 11.875H2.12502C1.8377 11.875 1.56215 11.7609 1.35899 11.5577C1.15582 11.3545 1.04169 11.079 1.04169 10.7917V4.83333C1.04169 4.54602 1.15582 4.27047 1.35899 4.0673C1.56215 3.86414 1.8377 3.75 2.12502 3.75H4.29169L5.37502 2.125H8.62502L9.70835 3.75H11.875C12.1623 3.75 12.4379 3.86414 12.6411 4.0673C12.8442 4.27047 12.9584 4.54602 12.9584 4.83333V10.7917Z" stroke="white" stroke-width="0.3" stroke-linecap="round" stroke-linejoin="round"/>
<path d="M6.99998 9.70833C8.1966 9.70833 9.16665 8.73828 9.16665 7.54167C9.16665 6.34505 8.1966 5.375 6.99998 5.375C5.80336 5.375 4.83331 6.34505 4.83331 7.54167C4.83331 8.73828 5.80336 9.70833 6.99998 9.70833Z" stroke="white" stroke-width="0.3" stroke-linecap="round" stroke-linejoin="round"/>
</g>
<defs>
<clipPath id="clip0_1_158">
<rect width="13" height="13" fill="white" transform="translate(0.5 0.5)"/>
</clipPath>
</defs>
</svg>
